<svg width="19" height="42" viewBox="0 0 19 42" fill="none" xmlns="http://www.w3.org/2000/svg">
<path d="M18.9928 20.6098C18.958 20.1832 18.7973 19.7793 18.5336 19.4563L3.36747 0.747251C3.20705 0.536599 3.00854 0.362546 2.78375 0.235456C2.55897 0.108367 2.31249 0.0308411 2.05904 0.00749632C1.80559 -0.0158485 1.55031 0.0154652 1.30844 0.0995721C1.06656 0.183679 0.84304 0.318859 0.651157 0.497062C0.459272 0.675264 0.302955 0.892843 0.191534 1.13684C0.0801103 1.38084 0.0158479 1.64627 0.00258036 1.91732C-0.0106853 2.18836 0.0273301 2.45949 0.114326 2.71454C0.201322 2.9696 0.335537 3.20336 0.508979 3.40192L14.594 20.7837L0.508978 38.1654C0.335533 38.364 0.201292 38.5978 0.114296 38.8528C0.0273 39.1079 -0.0106868 39.379 0.00257881 39.65C0.0158463 39.9211 0.0801087 40.1865 0.191532 40.4305C0.302954 40.6745 0.459271 40.8921 0.651155 41.0703C0.84304 41.2485 1.06656 41.3837 1.30844 41.4678C1.55031 41.5519 1.80558 41.5832 2.05904 41.5599C2.31249 41.5365 2.55897 41.459 2.78375 41.3319C3.00854 41.2048 3.20705 41.0308 3.36747 40.8201L18.5336 22.111C18.7006 21.9064 18.8273 21.6681 18.9061 21.4102C18.985 21.1523 19.0145 20.8801 18.9928 20.6098Z" fill="#E4E4E4"/>
</svg>
