<svg width="19" height="42" viewBox="0 0 19 42" fill="none" xmlns="http://www.w3.org/2000/svg">
<path d="M0.00693535 20.6098C0.0416704 20.1832 0.202432 19.7793 0.466067 19.4563L15.6322 0.747251C15.7926 0.536599 15.9912 0.362546 16.2159 0.235456C16.4407 0.108367 16.6872 0.0308411 16.9407 0.00749632C17.1941 -0.0158485 17.4494 0.0154652 17.6913 0.0995721C17.9331 0.183679 18.1567 0.318859 18.3485 0.497062C18.5404 0.675264 18.6967 0.892843 18.8082 1.13684C18.9196 1.38084 18.9838 1.64627 18.9971 1.91732C19.0104 2.18836 18.9724 2.45949 18.8854 2.71454C18.7984 2.9696 18.6642 3.20336 18.4907 3.40192L4.40571 20.7837L18.4907 38.1654C18.6642 38.364 18.7984 38.5978 18.8854 38.8528C18.9724 39.1079 19.0104 39.379 18.9971 39.65C18.9838 39.9211 18.9196 40.1865 18.8082 40.4305C18.6967 40.6745 18.5404 40.8921 18.3485 41.0703C18.1567 41.2485 17.9331 41.3837 17.6913 41.4678C17.4494 41.5519 17.1941 41.5832 16.9407 41.5599C16.6872 41.5365 16.4407 41.459 16.2159 41.3319C15.9912 41.2048 15.7926 41.0308 15.6322 40.8201L0.466067 22.111C0.299099 21.9064 0.172419 21.6681 0.0935432 21.4102C0.0146672 21.1523 -0.0147932 20.8801 0.00693535 20.6098Z" fill="#E4E4E4"/>
</svg>
