<svg width="24" height="24" viewBox="0 0 24 24" fill="none" xmlns="http://www.w3.org/2000/svg">
<path d="M22.8938 6.99424C22.6812 6.53518 22.2758 6.19464 21.7847 6.07141C20.8384 5.83341 19.9928 5.34235 19.3249 4.67445C18.658 4.00748 18.167 3.16272 17.929 2.21824C17.8048 1.72531 17.4624 1.31704 17.0005 1.10256C15.4644 0.391378 13.7562 -0.00466214 11.9586 4.1422e-05C11.0339 0.00192285 10.1337 0.109164 9.26924 0.309536C7.79522 0.651015 6.57707 1.70179 6.04842 3.11945C5.16608 5.48722 3.64597 7.54456 1.69692 9.08263C0.530501 10.0026 -0.100683 11.4504 0.0131369 12.932C0.336724 17.1492 2.88215 20.8773 6.68901 22.7935C6.99096 22.945 7.339 23.0212 7.70868 22.9807C8.58068 22.8848 9.26642 22.1567 9.30875 21.2799C9.3586 20.2451 8.53458 19.391 7.51115 19.391C7.32301 19.391 7.14147 19.4182 6.97121 19.4719C6.78684 19.5292 6.59118 19.5612 6.388 19.5612C5.85088 19.5612 5.36362 19.343 5.01181 18.9912C4.66 18.6384 4.44177 18.152 4.44177 17.6149C4.44177 17.0778 4.66 16.5905 5.01181 16.2386C5.34857 15.9019 5.80949 15.6855 6.32027 15.6676C7.05587 15.6413 7.63813 15.0214 7.61086 14.2744C7.58828 13.647 7.83567 13.0703 8.25145 12.6545C8.64746 12.2585 9.19493 12.0129 9.79977 12.0129C10.4046 12.0129 10.9521 12.2585 11.3481 12.6545C11.7441 13.0506 11.9896 13.5981 11.9896 14.2029C11.9896 14.8078 11.7441 15.3553 11.3481 15.7513C10.9521 16.1474 10.4046 16.3929 9.79977 16.3929H9.70477C8.97952 16.3929 8.3615 16.9573 8.33516 17.6826C8.30789 18.4437 8.91743 19.0702 9.67278 19.0702C10.0425 19.0702 10.3783 18.9215 10.62 18.6788C10.8928 18.406 11.2823 18.2508 11.7074 18.2941C12.3264 18.3571 12.8278 18.8538 12.8964 19.4728C12.9858 20.2799 12.3555 20.9638 11.5663 20.9638C11.5155 20.9638 11.4647 20.962 11.4149 20.9563C11.3594 20.9497 11.3029 20.9478 11.2456 20.9478C10.8251 20.9478 10.4432 21.1181 10.1676 21.3947C9.89196 21.6703 9.72076 22.0522 9.72076 22.4727C9.72076 23.2761 10.3407 23.9356 11.1289 23.9939C11.144 23.9948 11.159 23.9958 11.1741 23.9967C11.4741 24.0174 11.7723 23.9403 12.0282 23.7822C12.7553 23.3335 13.5671 22.9939 14.4466 22.7926C15.2217 22.6148 15.9968 22.5565 16.7522 22.6044C17.31 22.6402 17.8669 22.5038 18.341 22.2084C21.7433 20.0843 24.0056 16.3045 24 11.996C23.9972 10.2134 23.6021 8.51914 22.8957 6.99519M15.2895 11.1691C13.934 11.1691 12.8353 10.0704 12.8353 8.71481C12.8353 7.35924 13.934 6.26049 15.2895 6.26049C16.645 6.26049 17.7437 7.35924 17.7437 8.71481C17.7437 10.0704 16.645 11.1691 15.2895 11.1691Z" fill="white"/>
</svg>
